<?xml version="1.0" encoding="utf-8"?>
<!-- Generator: Adobe Illustrator 16.0.0, SVG Export Plug-In . SVG Version: 6.00 Build 0)  -->
<!DOCTYPE svg PUBLIC "-//W3C//DTD SVG 1.1//EN" "http://www.w3.org/Graphics/SVG/1.1/DTD/svg11.dtd">
<svg version="1.1" id="Layer_1" xmlns="http://www.w3.org/2000/svg" xmlns:xlink="http://www.w3.org/1999/xlink" x="0px" y="0px"
	 width="426.494px" height="120px" viewBox="0 0 426.494 120" enable-background="new 0 0 426.494 120" xml:space="preserve">
<g>
	<path fill="#F4823C" d="M406.724,12.043c0,0,15.463,6.467,14.358,22.746C421.082,34.79,425.5,15.357,406.724,12.043z"/>
	<path fill="#F4823C" d="M411.502,9.864c0,0,15.463,6.467,14.358,22.746C425.86,32.61,430.277,13.177,411.502,9.864z"/>
	<path fill="#F4823C" d="M19.589,12.043c0,0-15.463,6.467-14.359,22.746C5.23,34.79,0.812,15.357,19.589,12.043z"/>
	<path fill="#F4823C" d="M14.811,9.864c0,0-15.462,6.467-14.358,22.746C0.453,32.61-3.965,13.177,14.811,9.864z"/>
	<path fill="#F4823C" d="M179.531,8.596c0,0,10.052,3.408,10.564,12.95c0,0,0.852-11.246,11.245-12.95c0,0-8.689,0-10.904,4.601
		C190.436,13.197,185.325,8.767,179.531,8.596z"/>
	<path fill="#F4823C" d="M232.965,8.596c0,0,10.053,3.408,10.564,12.95c0,0,0.852-11.246,11.245-12.95c0,0-8.689,0-10.905,4.601
		C243.869,13.197,238.758,8.767,232.965,8.596z"/>
	<path fill="#F4823C" d="M13.39,49.39c-1.792-7.178-0.791-13.939,3.004-20.284c3.795-6.343,9.297-10.416,16.508-12.216
		c7.146-1.786,13.902-0.774,20.266,3.033C59.531,23.73,63.61,29.222,65.402,36.4c0.449,1.796,0.189,3.486-0.777,5.072
		c-0.965,1.586-2.346,2.604-4.14,3.052l-19.469,4.861c-1.826,0.456-3.523,0.208-5.088-0.748c-1.567-0.953-2.574-2.327-3.021-4.122
		c-0.449-1.794-0.206-3.48,0.729-5.059c0.933-1.578,2.313-2.595,4.14-3.051l11.248-2.81c-3.62-3.725-7.914-4.969-12.881-3.729
		c-3.589,0.897-6.338,2.946-8.245,6.145c-1.907,3.201-2.417,6.578-1.529,10.136c0.896,3.589,2.936,6.332,6.116,8.227
		c3.179,1.895,6.563,2.395,10.153,1.498l19.469-4.861c1.794-0.448,3.493-0.19,5.095,0.771c1.602,0.961,2.624,2.324,3.064,4.087
		c0.456,1.826,0.201,3.533-0.765,5.118c-0.966,1.587-2.346,2.604-4.14,3.052l-19.47,4.862c-7.209,1.8-13.98,0.794-20.312-3.021
		C19.246,62.064,15.183,56.568,13.39,49.39z"/>
	<path fill="#00A8A2" d="M92.94,69.117c-7.315-1.317-13.077-5.015-17.284-11.093c-4.209-6.078-5.657-12.757-4.346-20.04
		c1.312-7.282,5-13.036,11.064-17.263c6.064-4.228,12.754-5.684,20.068-4.366c1.787,0.322,3.214,1.251,4.281,2.785
		c1.065,1.535,1.438,3.197,1.116,4.984c-0.334,1.853-1.266,3.296-2.794,4.33c-1.528,1.033-3.188,1.389-4.974,1.066
		c-3.642-0.655-6.988,0.084-10.042,2.22c-3.052,2.136-4.903,5.007-5.553,8.615c-0.656,3.641,0.077,6.979,2.199,10.012
		c2.122,3.033,5.003,4.878,8.645,5.534c3.608,0.65,6.935-0.076,9.982-2.179c3.047-2.103,4.898-4.975,5.554-8.616l7.123-39.545
		c0.327-1.821,1.25-3.266,2.77-4.335c1.517-1.068,3.187-1.439,5.007-1.111c1.821,0.328,3.264,1.259,4.33,2.793
		c1.066,1.535,1.436,3.212,1.107,5.033l-7.122,39.545c-1.312,7.282-5.016,13.034-11.113,17.256
		C106.861,68.964,100.188,70.421,92.94,69.117z"/>
	<path fill="#00A8A2" d="M162.101,69.431c-7.399,0.706-13.944-1.299-19.637-6.015c-5.694-4.715-8.892-10.756-9.595-18.121
		l-1.912-20.024c-0.173-1.808,0.319-3.432,1.476-4.87c1.157-1.437,2.671-2.245,4.547-2.424c1.84-0.176,3.474,0.332,4.898,1.522
		c1.424,1.192,2.222,2.692,2.396,4.5l1.912,20.024c0.352,3.684,1.959,6.699,4.821,9.047c2.863,2.348,6.135,3.346,9.818,2.994
		c3.65-0.349,6.657-1.946,9.023-4.793c2.366-2.848,3.373-6.112,3.021-9.796l-1.913-20.024c-0.173-1.808,0.327-3.432,1.501-4.872
		c1.172-1.438,2.68-2.246,4.521-2.422c1.841-0.176,3.482,0.332,4.923,1.52c1.441,1.191,2.248,2.691,2.42,4.499l1.913,20.024
		c0.703,7.366-1.311,13.904-6.041,19.614C175.464,65.524,169.432,68.729,162.101,69.431z"/>
	<path fill="#F4823C" d="M204.224,20.604c6.321-3.766,13.057-4.762,20.206-2.992c7.149,1.771,12.647,5.792,16.492,12.066
		l0.072,0.119c0.931,1.595,1.168,3.298,0.716,5.107c-0.453,1.812-1.461,3.185-3.023,4.122c-1.595,0.929-3.288,1.169-5.082,0.721
		c-1.796-0.449-3.16-1.455-4.098-3.017c-1.932-3.171-4.69-5.208-8.281-6.104c-3.587-0.898-6.949-0.393-10.081,1.513
		c-3.196,1.892-5.243,4.632-6.141,8.219c-0.897,3.59-0.382,6.971,1.549,10.144c1.859,3.188,4.583,5.23,8.173,6.128
		c3.588,0.897,6.984,0.386,10.189-1.537c1.562-0.938,3.24-1.183,5.034-0.733c1.795,0.449,3.177,1.458,4.146,3.029
		c0.931,1.594,1.17,3.288,0.721,5.084c-0.448,1.794-1.453,3.158-3.016,4.095l-0.133,0.122c-6.344,3.726-13.091,4.694-20.235,2.906
		c-7.146-1.787-12.614-5.861-16.403-12.222c-3.797-6.329-4.798-13.082-3.003-20.261C193.821,29.937,197.887,24.433,204.224,20.604z"
		/>
	<path fill="#00A8A2" d="M276.804,16.738c7.173,1.667,12.726,5.646,16.656,11.934c3.931,6.289,5.059,13.037,3.384,20.243
		L292.3,68.46c-0.427,1.835-1.433,3.238-3.015,4.209s-3.273,1.247-5.074,0.829c-1.803-0.42-3.191-1.412-4.164-2.979
		c-0.979-1.565-1.254-3.266-0.825-5.099l4.543-19.546c0.829-3.57,0.267-6.94-1.694-10.111c-1.958-3.167-4.725-5.167-8.294-5.997
		c-3.605-0.837-6.986-0.266-10.141,1.714c-3.156,1.978-5.149,4.752-5.979,8.325c-0.837,3.605-0.274,6.974,1.693,10.109
		c1.966,3.136,4.752,5.123,8.355,5.961c1.769,0.411,3.148,1.411,4.138,2.997c0.985,1.586,1.273,3.265,0.862,5.032
		c-0.426,1.835-1.431,3.237-3.012,4.207c-1.581,0.974-3.261,1.253-5.026,0.843c-7.242-1.684-12.81-5.664-16.707-11.947
		c-3.898-6.279-5.01-13.024-3.335-20.231c1.675-7.206,5.647-12.768,11.916-16.687C262.81,16.173,269.562,15.054,276.804,16.738z"/>
	<path fill="#00A8A2" d="M319.535,17.751c6.895-2.588,13.723-2.355,20.479,0.7c6.758,3.056,11.436,8.048,14.037,14.974
		c0.65,1.732,0.585,3.44-0.193,5.126c-0.779,1.687-2.033,2.854-3.765,3.504c-1.732,0.65-3.438,0.593-5.118-0.17
		c-1.681-0.762-2.845-2.009-3.495-3.742c-1.288-3.432-3.627-5.923-7.015-7.475c-3.386-1.551-6.796-1.684-10.228-0.394
		c-3.464,1.301-5.96,3.649-7.491,7.046c-1.529,3.396-1.649,6.811-0.36,10.243l7.052,18.787c0.661,1.765,0.61,3.484-0.152,5.165
		c-0.764,1.682-2.012,2.845-3.742,3.494c-1.762,0.663-3.476,0.609-5.141-0.16c-1.664-0.768-2.827-2.035-3.488-3.797l-7.055-18.786
		c-2.6-6.928-2.376-13.757,0.669-20.494C307.574,25.038,312.578,20.363,319.535,17.751z"/>
	<path fill="#F4823C" d="M360.808,37.706c1.432-7.258,5.214-12.95,11.349-17.078c6.133-4.125,12.847-5.469,20.139-4.031
		c7.225,1.426,12.908,5.216,17.048,11.369c4.139,6.153,5.492,12.859,4.06,20.118c-0.358,1.816-1.312,3.234-2.859,4.259
		c-1.549,1.024-3.23,1.357-5.046,1l-19.687-3.884c-1.847-0.365-3.276-1.311-4.287-2.842c-1.012-1.528-1.339-3.2-0.98-5.016
		c0.358-1.814,1.296-3.236,2.812-4.268c1.517-1.031,3.199-1.364,5.046-1l11.374,2.244c-1.689-4.912-5.047-7.865-10.07-8.855
		c-3.63-0.716-6.988-0.032-10.075,2.052c-3.089,2.084-4.987,4.925-5.696,8.521c-0.716,3.63-0.039,6.979,2.032,10.047
		c2.07,3.068,4.922,4.96,8.551,5.677l19.688,3.884c1.814,0.357,3.241,1.313,4.282,2.867c1.041,1.551,1.386,3.22,1.033,5.001
		c-0.365,1.847-1.321,3.283-2.87,4.307c-1.548,1.023-3.23,1.357-5.044,0.998l-19.688-3.883c-7.291-1.438-12.991-5.231-17.097-11.378
		C360.712,51.669,359.375,44.966,360.808,37.706z"/>
	<g>
		<path fill="#F4823C" d="M156.179,96.322c0-1.47-0.397-3.895-3.059-3.895c-1.311,0-2.265,0.598-2.9,1.868
			c-0.517,0.874-0.675,1.827-0.715,2.065v9.973c0,0.635-0.477,1.112-1.113,1.112c-0.596,0-1.111-0.478-1.111-1.112V91.316
			c0-0.636,0.516-1.114,1.111-1.114c0.636,0,1.113,0.479,1.113,1.114v0.238c0.955-0.874,2.185-1.353,3.616-1.353
			c1.589,0,2.939,0.598,3.893,1.71c0.914,1.073,1.392,2.621,1.392,4.41v7.746c0.039,0.397,0.119,0.835,0.278,1.034
			c0.04,0,0.04,0.039,0.159,0.039c0.159,0,0.477,0,0.715-0.556c0.238-0.438,0.278-0.914,0.278-0.914
			c0.04-0.596,0.557-1.072,1.192-1.033c0.595,0.039,1.033,0.557,0.994,1.192c-0.08,1.231-0.835,3.534-3.179,3.534
			c-0.715,0-1.351-0.277-1.828-0.793c-0.437-0.517-0.675-1.192-0.794-1.828c-0.04-0.118-0.04-0.238-0.04-0.357v-0.158
			c-0.04-0.199-0.04-0.397-0.04-0.597c0-0.278,0-0.517,0.04-0.636V96.322z"/>
		<path fill="#F4823C" d="M164.523,90.124c0.635,0,1.112,0.477,1.112,1.112v10.012c0,1.47,0.397,3.894,3.06,3.894
			c1.271,0,2.225-0.597,2.899-1.867c0.556-1.033,0.676-2.145,0.676-2.145v-9.894c0-0.636,0.516-1.112,1.112-1.112
			c0.636,0,1.112,0.477,1.112,1.112v12.832c0.041,0.438,0.16,0.835,0.318,1.034c0,0.039,0.04,0.039,0.159,0.039
			c0.158,0,0.477,0,0.715-0.556c0.199-0.438,0.238-0.914,0.238-0.914c0.08-0.596,0.596-1.072,1.192-1.033s1.073,0.595,1.033,1.192
			c-0.079,1.231-0.835,3.534-3.178,3.534c-0.715,0-1.351-0.277-1.828-0.793c-0.238-0.238-0.437-0.556-0.557-0.875
			c-0.993,1.113-2.344,1.668-3.893,1.668c-1.629,0-2.98-0.595-3.933-1.707c-0.875-1.072-1.351-2.582-1.351-4.41V91.236
			C163.411,90.601,163.927,90.124,164.523,90.124z"/>
		<path fill="#F4823C" d="M180.456,90.202c0.596,0,1.112,0.479,1.112,1.114v0.08c0.834-0.755,1.867-1.194,3.059-1.194
			c3.854,0,5.165,3.061,5.205,3.179c0.238,0.558-0.04,1.233-0.596,1.472c-0.557,0.237-1.232-0.039-1.471-0.597h0.04
			c-0.04-0.079-0.874-1.828-3.179-1.828c-0.397,0-1.708-0.079-2.582,1.749c-0.517,1.072-0.477,2.265-0.477,2.265v9.893
			c0,0.635-0.517,1.112-1.112,1.112c-0.597,0-1.112-0.478-1.112-1.112V91.316C179.344,90.681,179.859,90.202,180.456,90.202z"/>
		<path fill="#F4823C" d="M192.773,106.095c-1.231-1.032-1.867-2.503-1.867-4.251c0-0.596,0.477-1.111,1.112-1.111
			c0.596,0,1.113,0.516,1.113,1.111c0,1.073,0.357,1.947,1.072,2.543c0.636,0.517,1.549,0.834,2.542,0.834
			c2.027,0,4.053-1.152,4.053-3.377c0-0.714,0-2.622-5.166-2.622c-3.337,0-5.284-1.589-5.284-4.251c0-0.157,0.04-1.509,1.033-2.82
			c0.715-0.914,2.145-2.065,4.807-2.065c4.847,0,6.158,3.059,6.237,3.178c0.239,0.596-0.039,1.231-0.595,1.47
			s-1.232-0.039-1.47-0.596c-0.04-0.08-0.875-1.827-4.172-1.827c-1.43,0-2.424,0.397-3.059,1.191
			c-0.437,0.636-0.557,1.312-0.557,1.47c0,0.597,0,2.027,3.059,2.027c2.344,0,4.053,0.317,5.284,1.072
			c1.391,0.834,2.106,2.146,2.106,3.773c0,3.615-3.219,5.603-6.278,5.603C195.237,107.446,193.807,106.929,192.773,106.095z"/>
		<path fill="#F4823C" d="M216.095,91.436c1.112,0.715,1.63,1.629,1.748,1.827c0.079,0.199,0.596,1.152,0.596,2.344
			c0,0.517-0.119,1.033-0.318,1.589c-0.555,1.271-1.747,2.186-3.574,2.662c-3.06,0.834-6.556,1.828-8.065,2.266
			c0.238,0.636,0.557,1.271,1.033,1.747c0.834,0.914,1.987,1.312,3.456,1.312c0,0,1.47,0,2.86-0.556
			c1.669-0.677,2.464-1.749,2.464-3.338c0-0.597,0.477-1.113,1.111-1.113c0.597,0,1.113,0.517,1.113,1.113
			c0,2.503-1.391,4.449-3.934,5.443c-1.788,0.674-3.536,0.674-3.615,0.674c-2.105,0-3.814-0.674-5.085-2.025
			c-1.947-2.065-2.145-5.125-2.145-6.237v-0.397c0.04-0.238,0.119-1.708,0.874-3.298c0.755-1.628,2.345-3.734,5.681-4.647
			C213.115,90.085,214.983,90.72,216.095,91.436z M205.965,98.824v0.318c0,0.199,0,0.477,0.039,0.794
			c1.628-0.477,4.966-1.43,7.946-2.225c1.15-0.317,1.827-0.754,2.104-1.39c0.12-0.238,0.159-0.478,0.159-0.716
			c0-0.636-0.317-1.191-0.356-1.271v-0.039c0,0-0.318-0.596-1.073-1.033c-1.033-0.636-2.344-0.715-3.894-0.277
			C206.162,94.217,206.004,98.627,205.965,98.824z"/>
		<path fill="#F4823C" d="M220.785,90.202c0.596,0,1.112,0.479,1.112,1.114v0.08c0.833-0.755,1.867-1.194,3.059-1.194
			c3.854,0,5.164,3.061,5.204,3.179c0.238,0.558-0.04,1.233-0.595,1.472c-0.558,0.237-1.233-0.039-1.471-0.597h0.039
			c-0.039-0.079-0.873-1.828-3.178-1.828c-0.397,0-1.709-0.079-2.582,1.749c-0.517,1.072-0.477,2.265-0.477,2.265v9.893
			c0,0.635-0.517,1.112-1.112,1.112c-0.598,0-1.112-0.478-1.112-1.112V91.316C219.673,90.681,220.188,90.202,220.785,90.202z"/>
		<path fill="#F4823C" d="M242.12,90.202c0.596,0,1.111,0.479,1.111,1.114v22.248c-0.119,3.139-1.628,4.688-2.899,5.403
			c-1.391,0.834-2.782,0.874-2.9,0.874c-2.344,0-4.172-0.717-5.482-2.106c-2.146-2.344-1.907-5.721-1.907-5.88
			c0.039-0.636,0.597-1.072,1.191-1.033c0.597,0.04,1.034,0.556,1.034,1.113v0.316c0,0.677,0.079,2.663,1.35,3.974
			c0.835,0.913,2.146,1.391,3.774,1.391c0.08,0,0.993-0.04,1.868-0.595c1.072-0.676,1.668-1.828,1.747-3.497v-7.588
			c-0.992,0.992-2.304,1.51-3.774,1.51c-1.589,0-3.059-0.597-4.132-1.67c-1.112-1.111-1.668-2.661-1.668-4.449V91.316
			c0-0.636,0.477-1.114,1.113-1.114c0.595,0,1.112,0.479,1.112,1.114v10.011c0,2.345,1.43,3.894,3.574,3.894
			c1.271,0,2.266-0.595,2.981-1.867c0.555-1.073,0.714-2.145,0.714-2.184c0-0.081,0.04-0.199,0.079-0.279v-9.574
			C241.007,90.681,241.484,90.202,242.12,90.202z"/>
	</g>
	<path fill="#00A8A2" d="M264.967,88.854c-0.437,0.198-0.913,0.357-1.391,0.357c-0.317,0-0.557-0.08-0.834-0.199
		c-0.478-0.237-0.794-0.237-1.312-0.237c-0.357,0-0.715,0-1.033-0.199c-0.039-0.041-0.039-0.08-0.158-0.08
		c-0.279,0-0.557,0.676-0.557,0.914c0,0.477,0.317,1.232,0.874,1.232c0.596,0,1.191,0,1.788,0.158l0.557,0.557
		c0.039,0.118,0.078,0.277,0.078,0.436c0,0.756-0.516,1.272-1.191,1.511c-0.636,0.159-1.549,0.118-2.065,0.517
		c-0.517,0.437-0.834,1.071-0.834,1.748c0,0.635,0.397,1.509,0.952,1.867c0.239,0.118,0.756,0.556,0.993,0.556
		c0.2,0,0.914-0.516,1.709-0.516c0.597,0,2.305,0.437,2.305,1.191c0,0.079-0.119,0.317-0.158,0.397
		c-0.558,1.032-2.345,0.517-2.741,1.549c-0.16,0.397-0.24,0.913-0.24,1.351c0,0.875,0.199,1.788,0.199,2.702
		c0,0.755-0.278,2.781-1.311,2.781c-0.238,0-0.517-0.041-0.756-0.081c-0.357-0.078-0.635-0.833-1.231-0.675
		c0.12-0.596,0.159-1.151,0.159-1.747c0-1.549-0.277-3.1-0.556-4.609c-0.319-1.629-2.78-1.271-2.78-4.529
		c0-0.596,0.117-1.151,0.277-1.708c0.199-0.556,1.311-2.065,1.311-2.423c0-0.637-1.072-1.272-1.072-2.105
		c0-0.715,0.438-1.352,0.715-1.946c0.596-1.152,1.986-1.233,2.662-2.225c0.238-0.358,0.119-0.954,0.119-1.391
		c0-1.114,0.755-1.987,1.906-1.987c0.836,0,1.59,0.556,1.59,1.431c0,0.636-0.278,1.231-0.278,1.867c0,1.827,2.86,0.874,2.86,2.7
		C265.404,88.257,265.245,88.854,264.967,88.854z"/>
	<g>
		<path fill="#F4823C" d="M279.549,90.045c0.635,0,1.112,0.477,1.112,1.112v0.716c1.073-0.994,2.701-1.828,5.164-1.828
			c2.821,0,5.007,1.51,6.317,4.41c0.914,2.025,1.072,4.052,1.072,4.132c0,0.158,0.238,4.131-2.146,6.674
			c-1.23,1.351-2.939,2.026-5.085,2.026c-0.079,0-1.827,0-3.615-0.715c-0.635-0.238-1.191-0.556-1.669-0.914v0.517
			c0,0.119-0.039,0.237-0.039,0.317v12.396c0,0.596-0.478,1.112-1.112,1.112c-0.597,0-1.113-0.517-1.113-1.112v-27.73
			C278.436,90.521,278.952,90.045,279.549,90.045z M280.7,96.242v4.928c0,1.589,0.795,2.661,2.464,3.336
			c1.391,0.557,2.82,0.557,2.82,0.557c1.51,0,2.623-0.437,3.457-1.312c1.43-1.51,1.549-3.933,1.549-4.768v-0.238
			c0-0.079-0.158-1.787-0.913-3.457c-0.954-2.025-2.304-3.018-4.252-3.018c-1.946,0-3.376,0.635-4.29,1.946
			C280.899,95.09,280.74,96.004,280.7,96.242z"/>
		<path fill="#F4823C" d="M295.602,90.202c0.594,0,1.112,0.479,1.112,1.114v0.08c0.834-0.755,1.867-1.194,3.059-1.194
			c3.853,0,5.165,3.061,5.204,3.179c0.238,0.558-0.039,1.233-0.596,1.472c-0.557,0.237-1.232-0.039-1.47-0.597h0.039
			c-0.039-0.079-0.873-1.828-3.178-1.828c-0.397,0-1.709-0.079-2.582,1.749c-0.518,1.072-0.477,2.265-0.477,2.265v9.893
			c0,0.635-0.519,1.112-1.112,1.112c-0.597,0-1.113-0.478-1.113-1.112V91.316C294.488,90.681,295.005,90.202,295.602,90.202z"/>
		<path fill="#F4823C" d="M318.128,91.436c1.112,0.715,1.629,1.629,1.748,1.827c0.079,0.199,0.597,1.152,0.597,2.344
			c0,0.517-0.12,1.033-0.318,1.589c-0.557,1.271-1.748,2.186-3.575,2.662c-3.06,0.834-6.556,1.828-8.065,2.266
			c0.239,0.636,0.557,1.271,1.033,1.747c0.834,0.914,1.987,1.312,3.456,1.312c0,0,1.47,0,2.86-0.556
			c1.669-0.677,2.464-1.749,2.464-3.338c0-0.597,0.478-1.113,1.112-1.113c0.596,0,1.112,0.517,1.112,1.113
			c0,2.503-1.391,4.449-3.934,5.443c-1.787,0.674-3.536,0.674-3.615,0.674c-2.105,0-3.814-0.674-5.085-2.025
			c-1.947-2.065-2.145-5.125-2.145-6.237v-0.397c0.039-0.238,0.118-1.708,0.873-3.298c0.756-1.628,2.346-3.734,5.682-4.647
			C315.148,90.085,317.016,90.72,318.128,91.436z M307.997,98.824v0.318c0,0.199,0,0.477,0.04,0.794
			c1.629-0.477,4.966-1.43,7.946-2.225c1.151-0.317,1.827-0.754,2.104-1.39c0.12-0.238,0.159-0.478,0.159-0.716
			c0-0.636-0.317-1.191-0.356-1.271v-0.039c0,0-0.318-0.596-1.074-1.033c-1.032-0.636-2.344-0.715-3.893-0.277
			C308.195,94.217,308.037,98.627,307.997,98.824z"/>
		<path fill="#F4823C" d="M323.531,106.095c-1.23-1.032-1.866-2.503-1.866-4.251c0-0.596,0.476-1.111,1.112-1.111
			c0.595,0,1.113,0.516,1.113,1.111c0,1.073,0.356,1.947,1.071,2.543c0.636,0.517,1.55,0.834,2.543,0.834
			c2.026,0,4.053-1.152,4.053-3.377c0-0.714,0-2.622-5.165-2.622c-3.338,0-5.284-1.589-5.284-4.251c0-0.157,0.04-1.509,1.032-2.82
			c0.716-0.914,2.146-2.065,4.809-2.065c4.847,0,6.157,3.059,6.236,3.178c0.239,0.596-0.039,1.231-0.596,1.47
			c-0.555,0.238-1.231-0.039-1.469-0.596c-0.04-0.08-0.875-1.827-4.172-1.827c-1.431,0-2.424,0.397-3.059,1.191
			c-0.438,0.636-0.558,1.312-0.558,1.47c0,0.597,0,2.027,3.06,2.027c2.344,0,4.053,0.317,5.284,1.072
			c1.391,0.834,2.105,2.146,2.105,3.773c0,3.615-3.219,5.603-6.277,5.603C325.996,107.446,324.565,106.929,323.531,106.095z"/>
		<path fill="#F4823C" d="M342.047,90.085c3.416,0,5.244,1.429,6.158,2.622c0.992,1.31,1.151,2.621,1.191,2.74
			c0.08,0.637-0.357,1.152-0.994,1.231c-0.595,0.08-1.151-0.356-1.23-0.952c0,0-0.119-0.874-0.795-1.71
			c-0.914-1.111-2.344-1.707-4.33-1.707c-1.907,0-3.297,0.993-4.25,3.059c-0.756,1.669-0.875,3.377-0.914,3.416v0.279
			c0,0.794,0.118,3.257,1.548,4.768c0.835,0.873,1.987,1.311,3.456,1.311h0.12c0.04,0,1.192,0.119,2.423-0.278
			c1.511-0.516,2.425-1.589,2.782-3.257c0.119-0.597,0.714-0.954,1.312-0.835c0.636,0.119,0.992,0.715,0.873,1.312
			c-0.677,3.099-2.741,4.369-4.369,4.886c-1.512,0.518-2.9,0.396-3.219,0.396c-2.066-0.038-3.774-0.714-5.007-2.025
			c-1.946-2.106-2.145-5.124-2.145-6.276c0-0.239,0.04-0.397,0.04-0.397c0-0.12,0.119-2.105,1.072-4.172
			C337.041,91.634,339.227,90.085,342.047,90.085z"/>
		<path fill="#F4823C" d="M352.061,75.107c0.596,0,1.111,0.516,1.111,1.111v15.733c1.073-0.953,2.703-1.788,5.166-1.788
			c1.748,0,3.178,0.596,4.291,1.748c1.867,2.026,2.065,5.204,2.065,6.435v0.478c0,0.04-0.04,4.967-0.04,4.967v0.158
			c0.04,0.478,0.119,0.994,0.318,1.192c0,0.04,0.04,0.04,0.158,0.04c0.158,0,0.477,0,0.716-0.556
			c0.198-0.438,0.238-0.914,0.238-0.914c0.04-0.597,0.596-1.073,1.191-1.034c0.597,0.04,1.073,0.597,1.032,1.192
			c-0.078,1.232-0.834,3.535-3.178,3.535c-0.715,0-1.352-0.277-1.826-0.794c-0.757-0.835-0.875-2.105-0.875-2.899v-0.636
			c0.04-1.073,0.04-4.292,0.04-4.292v-0.396c0-0.953-0.119-3.497-1.47-4.967c-0.676-0.714-1.55-1.032-2.662-1.032
			c-1.947,0-3.417,0.637-4.33,1.946c-0.596,0.835-0.795,1.749-0.836,1.987v9.972c0,0.635-0.476,1.111-1.111,1.111
			c-0.596,0-1.113-0.477-1.113-1.111V76.219C350.947,75.623,351.425,75.107,352.061,75.107z"/>
		<path fill="#F4823C" d="M377.091,90.164c3.1,0,4.927,1.391,5.92,2.581c0.993,1.193,1.311,2.386,1.391,2.623
			c0.04,0.199,0.517,1.907,0.517,3.854c0,1.033-0.159,2.145-0.556,3.139c-1.153,2.742-3.1,3.974-4.57,4.529
			c-1.469,0.557-2.701,0.557-2.9,0.516c-2.104,0-3.813-0.674-5.045-2.025c-1.946-2.065-2.146-5.125-2.146-6.237v-0.438
			c0-0.078,0.159-2.105,1.072-4.132C372.086,91.674,374.271,90.164,377.091,90.164z M371.927,98.864v0.278
			c0,0.794,0.118,3.218,1.55,4.728c0.834,0.914,1.946,1.312,3.456,1.312h0.04c0.158,0.039,3.773,0.119,5.323-3.695
			c0.755-1.748,0.198-4.569-0.039-5.522c0-0.04,0-0.04-0.04-0.04c0-0.158-0.914-3.535-5.126-3.535c-1.907,0-3.298,0.992-4.25,3.059
			C372.086,97.076,371.927,98.784,371.927,98.864z"/>
		<path fill="#F4823C" d="M393.819,90.164c3.099,0,4.926,1.391,5.919,2.581c0.993,1.193,1.312,2.386,1.391,2.623
			c0.039,0.199,0.516,1.907,0.516,3.854c0,1.033-0.158,2.145-0.556,3.139c-1.151,2.742-3.099,3.974-4.569,4.529
			c-1.47,0.557-2.7,0.557-2.899,0.516c-2.105,0-3.814-0.674-5.046-2.025c-1.945-2.065-2.145-5.125-2.145-6.237v-0.438
			c0-0.078,0.159-2.105,1.072-4.132C388.812,91.674,390.998,90.164,393.819,90.164z M388.654,98.864v0.278
			c0,0.794,0.119,3.218,1.549,4.728c0.834,0.914,1.947,1.312,3.456,1.312h0.04c0.159,0.039,3.773,0.119,5.324-3.695
			c0.754-1.748,0.198-4.569-0.04-5.522c0-0.04,0-0.04-0.039-0.04c0-0.158-0.914-3.535-5.125-3.535c-1.908,0-3.298,0.992-4.251,3.059
			C388.812,97.076,388.654,98.784,388.654,98.864z"/>
		<path fill="#F4823C" d="M405.064,75.068c0.636,0,1.111,0.515,1.111,1.111v27.889c0.08,0.438,0.16,0.835,0.319,1.034
			c0.039,0.039,0.039,0.039,0.158,0.039c0.159,0,0.478,0,0.715-0.556c0.198-0.438,0.238-0.914,0.278-0.914
			c0.04-0.596,0.557-1.072,1.152-1.033c0.635,0.039,1.072,0.595,1.033,1.192c-0.08,1.231-0.835,3.534-3.179,3.534
			c-0.716,0-1.351-0.277-1.828-0.793c-0.436-0.517-0.676-1.192-0.794-1.828c-0.04-0.118-0.08-0.238-0.08-0.357V76.18
			C403.951,75.583,404.468,75.068,405.064,75.068z"/>
	</g>
	<g>
		<path fill-rule="evenodd" clip-rule="evenodd" fill="#00A8A2" d="M39.411,65.503c-0.014-0.15-0.08-0.27-0.145-0.387
			c-0.125-0.229-0.297-0.424-0.486-0.602c-0.339-0.32-0.712-0.596-1.119-0.822c-0.446-0.247-0.931-0.375-1.444-0.39
			c-0.669-0.02-1.293,0.142-1.884,0.451c-0.619,0.324-1.169,0.743-1.676,1.221c-0.295,0.279-0.577,0.577-0.859,0.875
			c-0.305,0.322-0.627,0.625-1.001,0.868c-0.227,0.147-0.472,0.257-0.738,0.315c-0.513,0.11-0.925-0.048-1.246-0.453
			c-0.331-0.417-0.452-0.903-0.437-1.427c0.013-0.399,0.113-0.778,0.257-1.147c0.292-0.745,0.712-1.414,1.182-2.056
			c0.714-0.98,1.535-1.873,2.337-2.78c0.559-0.629,1.103-1.273,1.648-1.916c0.606-0.713,1.218-1.422,1.811-2.15
			c0.545-0.669,1.032-1.381,1.426-2.151c0.224-0.436,0.408-0.888,0.488-1.376c0.064-0.401,0.052-0.795-0.122-1.172
			c-0.073-0.16-0.171-0.304-0.298-0.427c-0.176-0.172-0.388-0.258-0.631-0.266c-0.233-0.009-0.455,0.046-0.67,0.133
			c-0.434,0.175-0.818,0.435-1.184,0.72c-0.607,0.475-1.164,1.004-1.687,1.565c-0.58,0.625-1.154,1.255-1.711,1.899
			c-0.654,0.754-1.354,1.463-2.081,2.147c-0.675,0.635-1.352,1.268-2.03,1.902c-0.028,0.026-0.059,0.048-0.12,0.096
			c0.008-0.088,0.011-0.144,0.019-0.199c0.151-1.106,0.346-2.207,0.621-3.289c0.246-0.967,0.508-1.928,0.758-2.893
			c0.31-1.202,0.622-2.403,0.92-3.608c0.21-0.852,0.364-1.715,0.426-2.594c0.031-0.433,0.034-0.866-0.025-1.298
			c-0.039-0.282-0.107-0.557-0.237-0.814c-0.227-0.445-0.592-0.674-1.089-0.691c-0.333-0.012-0.655,0.054-0.964,0.179
			c-0.33,0.133-0.566,0.383-0.767,0.667c-0.277,0.388-0.473,0.819-0.638,1.265c-0.321,0.868-0.514,1.769-0.711,2.671
			c-0.345,1.578-0.728,3.146-1.209,4.688c-0.266,0.853-0.556,1.695-0.94,2.504c-0.184,0.387-0.392,0.761-0.591,1.141
			c-0.012,0.025-0.034,0.048-0.065,0.089c-0.038-0.061-0.079-0.105-0.096-0.158c-0.055-0.165-0.114-0.33-0.149-0.5
			c-0.091-0.457-0.121-0.921-0.115-1.384c0.017-1.186,0.049-2.371,0.076-3.558c0.021-0.978,0.051-1.953,0.061-2.93
			c0.009-0.903-0.028-1.806-0.16-2.702c-0.07-0.468-0.164-0.932-0.348-1.373c-0.136-0.322-0.309-0.616-0.601-0.821
			c-0.178-0.125-0.37-0.218-0.582-0.266c-0.319-0.072-0.614-0.018-0.884,0.168c-0.223,0.151-0.391,0.353-0.53,0.581
			c-0.25,0.412-0.412,0.862-0.531,1.328c-0.181,0.708-0.269,1.43-0.328,2.155c-0.1,1.217-0.214,2.434-0.307,3.652
			c-0.063,0.82-0.109,1.642-0.145,2.463c-0.033,0.717-0.151,1.417-0.368,2.099c-0.037,0.117-0.069,0.238-0.113,0.393
			c-0.031-0.076-0.051-0.124-0.069-0.172c-0.246-0.686-0.433-1.39-0.574-2.105c-0.199-1.012-0.379-2.028-0.569-3.042
			c-0.16-0.858-0.326-1.716-0.582-2.551c-0.138-0.449-0.302-0.887-0.532-1.298c-0.198-0.355-0.441-0.676-0.78-0.912
			c-0.174-0.121-0.362-0.21-0.57-0.256c-0.298-0.065-0.562,0.001-0.795,0.199c-0.206,0.175-0.346,0.399-0.454,0.643
			c-0.248,0.554-0.351,1.139-0.388,1.741c-0.021,0.35,0.002,0.695,0.069,1.041c0.296,1.514,0.536,3.033,0.637,4.576
			c0.042,0.631,0.055,1.264,0.006,1.896c-0.048,0.619-0.178,1.224-0.303,1.829c-0.208,1.001-0.47,1.988-0.752,2.97
			c-0.364,1.275-0.714,2.553-0.945,3.861c-0.232,1.309-0.346,2.626-0.304,3.958c0.021,0.664,0.106,1.321,0.301,1.961
			c0.255,0.838,0.681,1.567,1.363,2.137c0.352,0.295,0.75,0.509,1.172,0.679c0.612,0.246,1.255,0.393,1.884,0.58
			c0.335,0.099,0.663,0.221,0.987,0.348c0.265,0.104,0.476,0.288,0.651,0.514c0.07,0.089,0.141,0.181,0.211,0.27
			c0.625,0.816,1.448,1.308,2.451,1.513c0.575,0.117,1.157,0.152,1.741,0.11c1.407-0.105,2.793-0.335,4.141-0.753
			c0.466-0.144,0.914-0.348,1.363-0.537c0.628-0.266,1.258-0.534,1.877-0.818c0.502-0.229,0.958-0.533,1.373-0.897
			c0.209-0.185,0.414-0.374,0.615-0.567c0.609-0.582,1.219-1.163,1.818-1.755c0.354-0.35,0.688-0.721,1.035-1.081
			c0.742-0.769,1.598-1.393,2.517-1.935c0.751-0.445,1.536-0.827,2.318-1.213c0.309-0.152,0.617-0.307,0.923-0.46
			C39.279,65.576,39.34,65.541,39.411,65.503z"/>
	</g>
	<g>
		<path fill-rule="evenodd" clip-rule="evenodd" fill="#00A8A2" d="M397.55,65.503c0.014-0.15,0.079-0.27,0.145-0.387
			c0.125-0.229,0.297-0.424,0.485-0.602c0.34-0.32,0.712-0.596,1.118-0.822c0.446-0.247,0.932-0.375,1.445-0.39
			c0.67-0.02,1.292,0.142,1.883,0.451c0.62,0.324,1.171,0.743,1.676,1.221c0.297,0.279,0.577,0.577,0.86,0.875
			c0.306,0.322,0.627,0.625,1.001,0.868c0.227,0.147,0.471,0.257,0.738,0.315c0.513,0.11,0.925-0.048,1.244-0.453
			c0.331-0.417,0.452-0.903,0.437-1.427c-0.012-0.399-0.112-0.778-0.257-1.147c-0.291-0.745-0.712-1.414-1.182-2.056
			c-0.714-0.98-1.534-1.873-2.337-2.78c-0.559-0.629-1.103-1.273-1.648-1.916c-0.606-0.713-1.218-1.422-1.811-2.15
			c-0.544-0.669-1.031-1.381-1.426-2.151c-0.225-0.436-0.408-0.888-0.488-1.376c-0.064-0.401-0.052-0.795,0.122-1.172
			c0.072-0.16,0.171-0.304,0.297-0.427c0.178-0.172,0.389-0.258,0.633-0.266c0.231-0.009,0.453,0.046,0.67,0.133
			c0.434,0.175,0.817,0.435,1.184,0.72c0.606,0.475,1.162,1.004,1.686,1.565c0.581,0.625,1.156,1.255,1.713,1.899
			c0.654,0.754,1.354,1.463,2.079,2.147c0.676,0.635,1.353,1.268,2.031,1.902c0.027,0.026,0.059,0.048,0.12,0.096
			c-0.008-0.088-0.011-0.144-0.019-0.199c-0.151-1.106-0.346-2.207-0.621-3.289c-0.246-0.967-0.508-1.928-0.758-2.893
			c-0.31-1.202-0.623-2.403-0.92-3.608c-0.209-0.852-0.365-1.715-0.426-2.594c-0.032-0.433-0.034-0.866,0.024-1.298
			c0.04-0.282,0.106-0.557,0.237-0.814c0.227-0.445,0.592-0.674,1.088-0.691c0.334-0.012,0.656,0.054,0.966,0.179
			c0.331,0.133,0.565,0.383,0.768,0.667c0.275,0.388,0.473,0.819,0.638,1.265c0.321,0.868,0.514,1.769,0.711,2.671
			c0.347,1.578,0.727,3.146,1.21,4.688c0.266,0.853,0.556,1.695,0.939,2.504c0.185,0.387,0.393,0.761,0.59,1.141
			c0.014,0.025,0.036,0.048,0.065,0.089c0.039-0.061,0.078-0.105,0.096-0.158c0.057-0.165,0.115-0.33,0.15-0.5
			c0.091-0.457,0.122-0.921,0.114-1.384c-0.016-1.186-0.048-2.371-0.075-3.558c-0.021-0.978-0.052-1.953-0.061-2.93
			c-0.009-0.903,0.028-1.806,0.161-2.702c0.068-0.468,0.162-0.932,0.346-1.373c0.137-0.322,0.31-0.616,0.602-0.821
			c0.179-0.125,0.37-0.218,0.581-0.266c0.319-0.072,0.613-0.018,0.884,0.168c0.224,0.151,0.392,0.353,0.53,0.581
			c0.251,0.412,0.411,0.862,0.531,1.328c0.182,0.708,0.268,1.43,0.328,2.155c0.102,1.217,0.215,2.434,0.308,3.652
			c0.063,0.82,0.109,1.642,0.146,2.463c0.031,0.717,0.15,1.417,0.368,2.099c0.037,0.117,0.067,0.238,0.112,0.393
			c0.031-0.076,0.051-0.124,0.069-0.172c0.245-0.686,0.432-1.39,0.573-2.105c0.197-1.012,0.379-2.028,0.569-3.042
			c0.159-0.858,0.325-1.716,0.581-2.551c0.137-0.449,0.302-0.887,0.532-1.298c0.198-0.355,0.441-0.676,0.78-0.912
			c0.175-0.121,0.362-0.21,0.57-0.256c0.298-0.065,0.562,0.001,0.795,0.199c0.206,0.175,0.346,0.399,0.454,0.643
			c0.247,0.554,0.351,1.139,0.388,1.741c0.021,0.35-0.003,0.695-0.069,1.041c-0.296,1.514-0.536,3.033-0.638,4.576
			c-0.043,0.631-0.057,1.264-0.006,1.896c0.048,0.619,0.178,1.224,0.303,1.829c0.207,1.001,0.47,1.988,0.752,2.97
			c0.365,1.275,0.714,2.553,0.945,3.861c0.232,1.309,0.347,2.626,0.304,3.958c-0.021,0.664-0.106,1.321-0.3,1.961
			c-0.256,0.838-0.683,1.567-1.364,2.137c-0.353,0.295-0.75,0.509-1.173,0.679c-0.611,0.246-1.255,0.393-1.883,0.58
			c-0.336,0.099-0.664,0.221-0.987,0.348c-0.264,0.104-0.475,0.288-0.651,0.514c-0.069,0.089-0.141,0.181-0.21,0.27
			c-0.626,0.816-1.448,1.308-2.452,1.513c-0.575,0.117-1.156,0.152-1.74,0.11c-1.407-0.105-2.793-0.335-4.141-0.753
			c-0.467-0.144-0.913-0.348-1.363-0.537c-0.628-0.266-1.258-0.534-1.877-0.818c-0.503-0.229-0.959-0.533-1.373-0.897
			c-0.21-0.185-0.413-0.374-0.615-0.567c-0.609-0.582-1.22-1.163-1.818-1.755c-0.354-0.35-0.688-0.721-1.034-1.081
			c-0.742-0.769-1.598-1.393-2.518-1.935c-0.751-0.445-1.536-0.827-2.317-1.213c-0.31-0.152-0.617-0.307-0.926-0.46
			C397.681,65.576,397.621,65.541,397.55,65.503z"/>
	</g>
</g>
</svg>
