<?xml version="1.0" encoding="utf-8"?>
<!-- Generator: Adobe Illustrator 16.0.0, SVG Export Plug-In . SVG Version: 6.00 Build 0)  -->
<!DOCTYPE svg PUBLIC "-//W3C//DTD SVG 1.1//EN" "http://www.w3.org/Graphics/SVG/1.1/DTD/svg11.dtd">
<svg version="1.1" id="Layer_1" xmlns="http://www.w3.org/2000/svg" xmlns:xlink="http://www.w3.org/1999/xlink" x="0px" y="0px"
	 width="194.1px" height="54.613px" viewBox="0 0 194.1 54.613" enable-background="new 0 0 194.1 54.613" xml:space="preserve">
<g opacity="0.5">
	<path fill="#FFFFFF" d="M185.143,5.481c0,0,7.037,2.943,6.535,10.352C191.678,15.833,193.688,6.989,185.143,5.481z"/>
	<path fill="#FFFFFF" d="M187.318,4.489c0,0,7.037,2.943,6.534,10.352C193.853,14.841,195.863,5.998,187.318,4.489z"/>
	<path fill="#FFFFFF" d="M8.957,5.481c0,0-7.038,2.943-6.536,10.352C2.421,15.833,0.41,6.989,8.957,5.481z"/>
	<path fill="#FFFFFF" d="M6.782,4.489c0,0-7.037,2.943-6.535,10.352C0.247,14.841-1.764,5.998,6.782,4.489z"/>
	<path fill="#FFFFFF" d="M81.747,3.912c0,0,4.575,1.552,4.808,5.894c0,0,0.387-5.118,5.118-5.894c0,0-3.955,0.001-4.964,2.094
		C86.709,6.006,84.384,3.99,81.747,3.912z"/>
	<path fill="#FFFFFF" d="M106.064,3.912c0,0,4.575,1.552,4.808,5.894c0,0,0.388-5.118,5.117-5.894c0,0-3.954,0.001-4.963,2.094
		C111.026,6.006,108.701,3.99,106.064,3.912z"/>
	<path fill="#FFFFFF" d="M6.135,22.478c-0.815-3.267-0.359-6.344,1.368-9.232c1.727-2.886,4.23-4.74,7.513-5.559
		c3.252-0.812,6.326-0.352,9.223,1.38c2.896,1.733,4.752,4.233,5.568,7.499c0.204,0.818,0.086,1.587-0.354,2.309
		s-1.068,1.185-1.885,1.389l-8.86,2.213c-0.831,0.208-1.603,0.094-2.315-0.34c-0.714-0.434-1.172-1.06-1.375-1.876
		c-0.204-0.816-0.094-1.584,0.332-2.302c0.424-0.718,1.052-1.181,1.884-1.388l5.119-1.279c-1.647-1.695-3.603-2.261-5.862-1.697
		c-1.634,0.408-2.885,1.341-3.752,2.797c-0.868,1.457-1.101,2.994-0.696,4.613c0.408,1.633,1.335,2.881,2.783,3.744
		c1.446,0.863,2.986,1.09,4.62,0.682l8.86-2.213c0.816-0.203,1.59-0.086,2.319,0.352c0.729,0.438,1.194,1.058,1.394,1.859
		c0.208,0.831,0.092,1.608-0.348,2.33c-0.439,0.722-1.067,1.185-1.884,1.389l-8.861,2.213c-3.281,0.818-6.362,0.361-9.244-1.376
		C8.8,28.247,6.951,25.745,6.135,22.478z"/>
	<path fill="#FFFFFF" d="M42.339,31.456c-3.329-0.601-5.951-2.283-7.866-5.049c-1.916-2.766-2.575-5.806-1.978-9.12
		s2.275-5.933,5.035-7.857s5.804-2.586,9.133-1.987c0.813,0.147,1.463,0.57,1.948,1.268c0.485,0.699,0.655,1.455,0.508,2.269
		c-0.151,0.843-0.575,1.5-1.271,1.97s-1.451,0.632-2.265,0.485c-1.657-0.298-3.18,0.039-4.569,1.01
		c-1.39,0.973-2.231,2.279-2.527,3.921c-0.299,1.657,0.035,3.176,1,4.556c0.966,1.38,2.277,2.221,3.935,2.519
		c1.643,0.296,3.155-0.035,4.544-0.991c1.386-0.958,2.229-2.264,2.526-3.921l3.242-17.997c0.148-0.829,0.569-1.486,1.261-1.973
		c0.69-0.486,1.449-0.656,2.278-0.506s1.486,0.573,1.971,1.272c0.485,0.698,0.653,1.461,0.504,2.29l-3.241,17.997
		c-0.598,3.314-2.283,5.932-5.058,7.853C48.674,31.386,45.638,32.049,42.339,31.456z"/>
	<path fill="#FFFFFF" d="M73.814,31.599c-3.368,0.321-6.347-0.591-8.938-2.737c-2.591-2.146-4.046-4.895-4.367-8.247l-0.87-9.113
		c-0.078-0.823,0.146-1.562,0.673-2.216c0.526-0.654,1.215-1.022,2.068-1.103c0.838-0.08,1.581,0.151,2.229,0.692
		c0.648,0.543,1.012,1.226,1.091,2.048l0.87,9.113c0.16,1.676,0.892,3.049,2.193,4.118c1.304,1.068,2.792,1.522,4.468,1.362
		c1.661-0.159,3.03-0.886,4.106-2.181c1.078-1.296,1.536-2.782,1.376-4.458l-0.87-9.113c-0.079-0.823,0.148-1.562,0.683-2.217
		c0.534-0.654,1.22-1.022,2.058-1.102s1.585,0.15,2.241,0.691c0.655,0.542,1.023,1.225,1.101,2.048l0.871,9.113
		c0.32,3.353-0.596,6.328-2.749,8.926C79.896,29.821,77.15,31.28,73.814,31.599z"/>
	<path fill="#FFFFFF" d="M92.984,9.377c2.877-1.713,5.942-2.167,9.195-1.361c3.254,0.806,5.757,2.636,7.506,5.491l0.033,0.054
		c0.424,0.726,0.532,1.501,0.325,2.325c-0.206,0.824-0.664,1.449-1.376,1.876c-0.726,0.423-1.496,0.532-2.313,0.328
		c-0.817-0.205-1.438-0.662-1.863-1.373c-0.881-1.443-2.135-2.37-3.769-2.778c-1.633-0.409-3.163-0.179-4.589,0.688
		c-1.454,0.861-2.386,2.107-2.794,3.741c-0.409,1.634-0.174,3.172,0.705,4.616c0.846,1.452,2.085,2.381,3.719,2.79
		c1.633,0.409,3.179,0.175,4.638-0.699c0.711-0.428,1.475-0.539,2.291-0.334c0.815,0.205,1.445,0.663,1.887,1.378
		c0.424,0.725,0.531,1.498,0.328,2.315c-0.204,0.815-0.662,1.436-1.372,1.862l-0.062,0.056c-2.887,1.696-5.957,2.137-9.209,1.323
		s-5.741-2.668-7.465-5.563c-1.729-2.88-2.184-5.954-1.366-9.221C88.25,13.625,90.102,11.12,92.984,9.377z"/>
	<path fill="#FFFFFF" d="M126.015,7.618c3.266,0.759,5.792,2.57,7.581,5.432c1.789,2.861,2.303,5.932,1.54,9.212l-2.067,8.896
		c-0.193,0.835-0.652,1.474-1.372,1.915c-0.721,0.442-1.489,0.567-2.31,0.378c-0.82-0.191-1.452-0.643-1.896-1.357
		c-0.443-0.71-0.569-1.484-0.374-2.319l2.067-8.895c0.378-1.625,0.122-3.159-0.771-4.602c-0.892-1.441-2.15-2.352-3.775-2.729
		c-1.641-0.38-3.179-0.121-4.615,0.78c-1.436,0.901-2.343,2.164-2.721,3.789c-0.382,1.641-0.124,3.174,0.771,4.601
		c0.895,1.427,2.162,2.331,3.803,2.713c0.805,0.187,1.433,0.642,1.882,1.364c0.45,0.721,0.58,1.484,0.394,2.29
		c-0.193,0.836-0.651,1.474-1.37,1.915c-0.721,0.442-1.484,0.57-2.288,0.384c-3.296-0.767-5.829-2.579-7.603-5.438
		c-1.774-2.857-2.281-5.927-1.519-9.208c0.763-3.279,2.57-5.811,5.422-7.594C119.646,7.36,122.722,6.852,126.015,7.618z"/>
	<path fill="#FFFFFF" d="M145.464,8.08c3.138-1.179,6.245-1.072,9.319,0.318c3.075,1.391,5.204,3.663,6.389,6.815
		c0.295,0.788,0.266,1.565-0.088,2.333c-0.355,0.767-0.927,1.299-1.714,1.595c-0.789,0.295-1.565,0.27-2.329-0.078
		c-0.766-0.347-1.295-0.914-1.592-1.703c-0.586-1.562-1.649-2.696-3.192-3.402c-1.54-0.706-3.092-0.766-4.653-0.179
		c-1.577,0.592-2.713,1.661-3.409,3.207c-0.697,1.546-0.752,3.1-0.165,4.662l3.211,8.55c0.3,0.803,0.277,1.585-0.071,2.351
		c-0.347,0.766-0.915,1.295-1.702,1.591c-0.802,0.301-1.582,0.276-2.34-0.075c-0.758-0.348-1.286-0.925-1.587-1.727l-3.211-8.55
		c-1.184-3.152-1.083-6.261,0.304-9.327C140.02,11.395,142.297,9.268,145.464,8.08z"/>
	<path fill="#FFFFFF" d="M164.246,17.161c0.652-3.303,2.373-5.894,5.166-7.772c2.79-1.878,5.846-2.489,9.163-1.834
		c3.29,0.648,5.876,2.373,7.761,5.174c1.882,2.8,2.498,5.852,1.846,9.156c-0.162,0.826-0.596,1.472-1.301,1.938
		c-0.704,0.466-1.47,0.618-2.296,0.455l-8.96-1.768c-0.84-0.166-1.491-0.597-1.951-1.293c-0.461-0.696-0.609-1.457-0.446-2.283
		c0.164-0.825,0.591-1.473,1.28-1.942c0.69-0.469,1.454-0.622,2.297-0.456l5.175,1.022c-0.769-2.235-2.296-3.58-4.581-4.03
		c-1.652-0.326-3.182-0.015-4.586,0.934c-1.405,0.948-2.271,2.241-2.593,3.878c-0.327,1.652-0.019,3.176,0.925,4.573
		c0.943,1.396,2.24,2.257,3.891,2.583l8.96,1.768c0.825,0.163,1.475,0.598,1.949,1.303c0.474,0.707,0.63,1.466,0.471,2.277
		c-0.166,0.84-0.601,1.493-1.305,1.96c-0.706,0.466-1.473,0.617-2.298,0.453l-8.96-1.767c-3.317-0.654-5.911-2.381-7.779-5.178
		C164.203,23.515,163.594,20.465,164.246,17.161z"/>
	<g>
		<path fill="#FFFFFF" d="M71.119,43.836c0-0.668-0.181-1.771-1.392-1.771c-0.597,0-1.031,0.271-1.321,0.851
			c-0.234,0.396-0.307,0.83-0.324,0.939v4.538c0,0.289-0.218,0.506-0.507,0.506c-0.271,0-0.506-0.217-0.506-0.506v-6.835
			c0-0.288,0.234-0.507,0.506-0.507c0.289,0,0.507,0.219,0.507,0.507v0.108c0.434-0.396,0.994-0.615,1.646-0.615
			c0.723,0,1.337,0.272,1.771,0.778c0.416,0.488,0.632,1.193,0.632,2.006v3.526c0.019,0.18,0.055,0.38,0.127,0.471
			c0.019,0,0.019,0.019,0.073,0.019c0.071,0,0.216,0,0.324-0.253c0.108-0.2,0.127-0.416,0.127-0.416
			c0.018-0.272,0.254-0.488,0.542-0.471c0.271,0.019,0.471,0.253,0.452,0.543c-0.036,0.561-0.379,1.609-1.445,1.609
			c-0.326,0-0.615-0.129-0.832-0.361c-0.199-0.235-0.308-0.543-0.362-0.832c-0.018-0.055-0.018-0.109-0.018-0.164v-0.072
			c-0.019-0.09-0.019-0.18-0.019-0.271c0-0.127,0-0.236,0.019-0.29V43.836z"/>
		<path fill="#FFFFFF" d="M74.917,41.016c0.289,0,0.506,0.218,0.506,0.507v4.556c0,0.67,0.181,1.773,1.393,1.773
			c0.578,0,1.012-0.271,1.32-0.851c0.252-0.471,0.307-0.976,0.307-0.976v-4.503c0-0.289,0.235-0.507,0.506-0.507
			c0.29,0,0.507,0.218,0.507,0.507v5.84c0.018,0.199,0.072,0.38,0.145,0.471c0,0.019,0.018,0.019,0.072,0.019
			c0.072,0,0.217,0,0.325-0.253c0.091-0.2,0.108-0.416,0.108-0.416c0.036-0.272,0.271-0.488,0.542-0.471
			c0.271,0.019,0.489,0.271,0.471,0.543c-0.036,0.561-0.38,1.609-1.446,1.609c-0.325,0-0.614-0.129-0.832-0.361
			c-0.107-0.109-0.198-0.254-0.253-0.399c-0.451,0.507-1.066,0.761-1.771,0.761c-0.741,0-1.356-0.272-1.79-0.777
			c-0.398-0.488-0.614-1.177-0.614-2.009v-4.556C74.411,41.233,74.646,41.016,74.917,41.016z"/>
		<path fill="#FFFFFF" d="M82.168,41.052c0.271,0,0.506,0.219,0.506,0.507v0.036c0.38-0.343,0.85-0.543,1.392-0.543
			c1.755,0,2.352,1.394,2.369,1.448c0.108,0.252-0.018,0.56-0.271,0.668c-0.253,0.107-0.56-0.018-0.669-0.271h0.019
			c-0.019-0.036-0.398-0.832-1.447-0.832c-0.181,0-0.777-0.036-1.175,0.796c-0.234,0.488-0.217,1.03-0.217,1.03v4.502
			c0,0.289-0.235,0.506-0.506,0.506c-0.272,0-0.506-0.217-0.506-0.506v-6.835C81.662,41.271,81.896,41.052,82.168,41.052z"/>
		<path fill="#FFFFFF" d="M87.773,48.284c-0.561-0.469-0.85-1.138-0.85-1.934c0-0.272,0.217-0.507,0.506-0.507
			c0.271,0,0.506,0.234,0.506,0.507c0,0.488,0.163,0.885,0.489,1.156c0.288,0.235,0.704,0.381,1.156,0.381
			c0.923,0,1.845-0.525,1.845-1.537c0-0.325,0-1.193-2.351-1.193c-1.519,0-2.405-0.724-2.405-1.935c0-0.072,0.019-0.687,0.471-1.284
			c0.325-0.416,0.976-0.94,2.188-0.94c2.206,0,2.803,1.393,2.838,1.447c0.109,0.271-0.017,0.56-0.271,0.668
			c-0.253,0.109-0.561-0.018-0.668-0.271c-0.019-0.036-0.399-0.832-1.899-0.832c-0.651,0-1.103,0.181-1.393,0.542
			c-0.198,0.29-0.253,0.598-0.253,0.67c0,0.271,0,0.923,1.393,0.923c1.066,0,1.844,0.144,2.404,0.487
			c0.633,0.38,0.958,0.977,0.958,1.718c0,1.646-1.464,2.549-2.856,2.549C88.895,48.899,88.243,48.664,87.773,48.284z"/>
		<path fill="#FFFFFF" d="M98.387,41.613c0.507,0.325,0.741,0.741,0.796,0.832c0.036,0.091,0.271,0.523,0.271,1.066
			c0,0.234-0.053,0.47-0.145,0.723c-0.254,0.579-0.795,0.995-1.627,1.211c-1.392,0.38-2.983,0.833-3.671,1.032
			c0.109,0.289,0.255,0.578,0.471,0.794c0.38,0.416,0.904,0.598,1.573,0.598c0,0,0.669,0,1.302-0.253
			c0.759-0.309,1.121-0.797,1.121-1.52c0-0.271,0.218-0.506,0.505-0.506c0.272,0,0.507,0.234,0.507,0.506
			c0,1.139-0.632,2.025-1.789,2.478c-0.813,0.307-1.609,0.307-1.646,0.307c-0.958,0-1.735-0.307-2.314-0.921
			c-0.887-0.941-0.977-2.334-0.977-2.839v-0.182c0.019-0.107,0.054-0.777,0.398-1.5c0.344-0.741,1.067-1.699,2.585-2.115
			C97.031,40.998,97.881,41.286,98.387,41.613z M93.776,44.976v0.146c0,0.09,0,0.216,0.019,0.36c0.741-0.217,2.26-0.649,3.616-1.013
			c0.524-0.144,0.831-0.342,0.957-0.633c0.055-0.108,0.073-0.216,0.073-0.324c0-0.289-0.146-0.543-0.163-0.578v-0.018
			c0,0-0.145-0.272-0.488-0.471c-0.47-0.291-1.066-0.327-1.771-0.127C93.866,42.879,93.795,44.885,93.776,44.976z"/>
		<path fill="#FFFFFF" d="M100.521,41.052c0.271,0,0.505,0.219,0.505,0.507v0.036c0.381-0.343,0.852-0.543,1.393-0.543
			c1.755,0,2.351,1.394,2.369,1.448c0.108,0.252-0.019,0.56-0.271,0.668c-0.254,0.107-0.562-0.018-0.669-0.271h0.019
			c-0.019-0.036-0.399-0.832-1.448-0.832c-0.18,0-0.777-0.036-1.175,0.796c-0.234,0.488-0.218,1.03-0.218,1.03v4.502
			c0,0.289-0.234,0.506-0.505,0.506c-0.272,0-0.505-0.217-0.505-0.506v-6.835C100.017,41.271,100.249,41.052,100.521,41.052z"/>
		<path fill="#FFFFFF" d="M110.23,41.052c0.272,0,0.506,0.219,0.506,0.507v10.125c-0.054,1.428-0.74,2.134-1.319,2.46
			c-0.633,0.379-1.267,0.397-1.319,0.397c-1.066,0-1.898-0.325-2.495-0.959c-0.978-1.066-0.868-2.604-0.868-2.676
			c0.018-0.289,0.271-0.488,0.542-0.469c0.271,0.017,0.471,0.252,0.471,0.505v0.145c0,0.308,0.036,1.212,0.614,1.809
			c0.38,0.416,0.977,0.632,1.718,0.632c0.036,0,0.452-0.017,0.851-0.271c0.487-0.307,0.759-0.832,0.794-1.591v-3.453
			c-0.451,0.451-1.048,0.687-1.717,0.687c-0.724,0-1.392-0.271-1.88-0.76c-0.507-0.505-0.759-1.212-0.759-2.025v-4.556
			c0-0.288,0.216-0.507,0.505-0.507c0.271,0,0.507,0.219,0.507,0.507v4.556c0,1.068,0.651,1.773,1.627,1.773
			c0.578,0,1.03-0.271,1.355-0.851c0.254-0.488,0.326-0.976,0.326-0.995c0-0.035,0.019-0.089,0.035-0.125v-4.358
			C109.724,41.271,109.941,41.052,110.23,41.052z"/>
	</g>
	<path fill="#FFFFFF" d="M120.629,40.438c-0.198,0.091-0.416,0.164-0.633,0.164c-0.146,0-0.254-0.038-0.38-0.091
		c-0.218-0.109-0.361-0.109-0.598-0.109c-0.161,0-0.325,0-0.469-0.09c-0.02-0.019-0.02-0.037-0.072-0.037
		c-0.127,0-0.254,0.309-0.254,0.416c0,0.218,0.146,0.562,0.397,0.562c0.272,0,0.543,0,0.813,0.072l0.254,0.253
		c0.019,0.054,0.035,0.125,0.035,0.198c0,0.343-0.234,0.579-0.542,0.688c-0.288,0.073-0.704,0.055-0.94,0.235
		c-0.234,0.199-0.379,0.488-0.379,0.795c0,0.289,0.181,0.688,0.434,0.851c0.109,0.054,0.344,0.253,0.452,0.253
		c0.091,0,0.416-0.235,0.778-0.235c0.271,0,1.048,0.198,1.048,0.542c0,0.036-0.055,0.146-0.071,0.182
		c-0.254,0.47-1.068,0.234-1.248,0.704c-0.073,0.182-0.109,0.416-0.109,0.614c0,0.399,0.091,0.815,0.091,1.231
		c0,0.343-0.127,1.265-0.597,1.265c-0.109,0-0.234-0.019-0.344-0.035c-0.162-0.036-0.289-0.381-0.56-0.309
		c0.053-0.271,0.071-0.523,0.071-0.796c0-0.704-0.126-1.409-0.253-2.098c-0.146-0.741-1.266-0.577-1.266-2.061
		c0-0.271,0.055-0.524,0.127-0.777c0.091-0.252,0.596-0.94,0.596-1.104c0-0.289-0.487-0.578-0.487-0.958
		c0-0.325,0.199-0.613,0.325-0.886c0.271-0.523,0.903-0.56,1.212-1.012c0.107-0.163,0.055-0.434,0.055-0.634
		c0-0.506,0.343-0.903,0.866-0.903c0.38,0,0.725,0.252,0.725,0.651c0,0.288-0.127,0.561-0.127,0.85c0,0.832,1.301,0.397,1.301,1.229
		C120.827,40.167,120.755,40.438,120.629,40.438z"/>
	<g>
		<path fill="#FFFFFF" d="M127.264,40.979c0.291,0,0.508,0.218,0.508,0.507v0.325c0.488-0.452,1.229-0.832,2.35-0.832
			c1.284,0,2.279,0.688,2.875,2.009c0.416,0.921,0.488,1.844,0.488,1.88c0,0.071,0.109,1.88-0.977,3.037
			c-0.56,0.614-1.337,0.923-2.314,0.923c-0.036,0-0.831,0-1.645-0.325c-0.289-0.109-0.542-0.254-0.76-0.416v0.234
			c0,0.055-0.018,0.107-0.018,0.144v5.642c0,0.271-0.217,0.507-0.508,0.507c-0.271,0-0.505-0.235-0.505-0.507v-12.62
			C126.759,41.197,126.993,40.979,127.264,40.979z M127.789,43.8v2.242c0,0.725,0.361,1.213,1.121,1.52
			c0.633,0.254,1.283,0.254,1.283,0.254c0.688,0,1.193-0.199,1.573-0.597c0.652-0.688,0.705-1.791,0.705-2.17v-0.109
			c0-0.036-0.071-0.812-0.416-1.571c-0.433-0.923-1.048-1.375-1.935-1.375c-0.885,0-1.536,0.289-1.953,0.886
			C127.88,43.275,127.808,43.691,127.789,43.8z"/>
		<path fill="#FFFFFF" d="M134.57,41.052c0.271,0,0.507,0.219,0.507,0.507v0.036c0.38-0.343,0.85-0.543,1.392-0.543
			c1.754,0,2.352,1.394,2.368,1.448c0.108,0.252-0.017,0.56-0.271,0.668c-0.253,0.107-0.562-0.018-0.669-0.271h0.019
			c-0.019-0.036-0.398-0.832-1.447-0.832c-0.181,0-0.778-0.036-1.176,0.796c-0.234,0.488-0.216,1.03-0.216,1.03v4.502
			c0,0.289-0.236,0.506-0.507,0.506s-0.507-0.217-0.507-0.506v-6.835C134.063,41.271,134.3,41.052,134.57,41.052z"/>
		<path fill="#FFFFFF" d="M144.822,41.613c0.507,0.325,0.741,0.741,0.796,0.832c0.036,0.091,0.271,0.523,0.271,1.066
			c0,0.234-0.055,0.47-0.144,0.723c-0.253,0.579-0.796,0.995-1.628,1.211c-1.393,0.38-2.982,0.833-3.669,1.032
			c0.107,0.289,0.253,0.578,0.469,0.794c0.38,0.416,0.905,0.598,1.573,0.598c0,0,0.67,0,1.302-0.253
			c0.76-0.309,1.121-0.797,1.121-1.52c0-0.271,0.218-0.506,0.507-0.506c0.271,0,0.505,0.234,0.505,0.506
			c0,1.139-0.632,2.025-1.789,2.478c-0.813,0.307-1.609,0.307-1.646,0.307c-0.958,0-1.735-0.307-2.314-0.921
			c-0.887-0.941-0.976-2.334-0.976-2.839v-0.182c0.019-0.107,0.053-0.777,0.397-1.5c0.344-0.741,1.067-1.699,2.585-2.115
			C143.467,40.998,144.315,41.286,144.822,41.613z M140.213,44.976v0.146c0,0.09,0,0.216,0.018,0.36
			c0.741-0.217,2.26-0.649,3.616-1.013c0.523-0.144,0.832-0.342,0.957-0.633c0.056-0.108,0.073-0.216,0.073-0.324
			c0-0.289-0.146-0.543-0.162-0.578v-0.018c0,0-0.145-0.272-0.49-0.471c-0.469-0.291-1.064-0.327-1.771-0.127
			C140.303,42.879,140.23,44.885,140.213,44.976z"/>
		<path fill="#FFFFFF" d="M147.282,48.284c-0.562-0.469-0.849-1.138-0.849-1.934c0-0.272,0.216-0.507,0.505-0.507
			c0.272,0,0.507,0.234,0.507,0.507c0,0.488,0.162,0.885,0.488,1.156c0.289,0.235,0.705,0.381,1.157,0.381
			c0.921,0,1.844-0.525,1.844-1.537c0-0.325,0-1.193-2.351-1.193c-1.519,0-2.405-0.724-2.405-1.935c0-0.072,0.019-0.687,0.471-1.284
			c0.325-0.416,0.978-0.94,2.188-0.94c2.205,0,2.803,1.393,2.839,1.447c0.109,0.271-0.019,0.56-0.271,0.668
			c-0.254,0.109-0.561-0.018-0.67-0.271c-0.019-0.036-0.398-0.832-1.898-0.832c-0.65,0-1.103,0.181-1.392,0.542
			c-0.199,0.29-0.254,0.598-0.254,0.67c0,0.271,0,0.923,1.393,0.923c1.066,0,1.845,0.144,2.405,0.487
			c0.632,0.38,0.957,0.977,0.957,1.718c0,1.646-1.464,2.549-2.855,2.549C148.404,48.899,147.752,48.664,147.282,48.284z"/>
		<path fill="#FFFFFF" d="M155.708,40.998c1.555,0,2.387,0.651,2.803,1.193c0.451,0.597,0.523,1.192,0.542,1.248
			c0.037,0.288-0.162,0.524-0.452,0.561c-0.271,0.036-0.523-0.164-0.56-0.434c0,0-0.055-0.398-0.362-0.778
			c-0.416-0.506-1.065-0.777-1.971-0.777c-0.868,0-1.5,0.452-1.934,1.393c-0.344,0.759-0.398,1.536-0.416,1.554v0.128
			c0,0.36,0.054,1.481,0.704,2.17c0.38,0.396,0.905,0.597,1.573,0.597h0.054c0.019,0,0.544,0.054,1.104-0.128
			c0.688-0.233,1.103-0.723,1.266-1.481c0.055-0.271,0.325-0.435,0.597-0.38c0.29,0.055,0.452,0.325,0.397,0.596
			c-0.308,1.411-1.246,1.99-1.987,2.225c-0.688,0.234-1.32,0.182-1.466,0.182c-0.939-0.02-1.717-0.326-2.278-0.923
			c-0.886-0.959-0.977-2.332-0.977-2.856c0-0.109,0.018-0.182,0.018-0.182c0-0.054,0.056-0.958,0.489-1.898
			C153.431,41.702,154.424,40.998,155.708,40.998z"/>
		<path fill="#FFFFFF" d="M160.265,34.182c0.271,0,0.507,0.235,0.507,0.506v7.16c0.488-0.434,1.229-0.813,2.351-0.813
			c0.796,0,1.447,0.272,1.953,0.796c0.85,0.922,0.94,2.368,0.94,2.929v0.217c0,0.019-0.019,2.26-0.019,2.26v0.072
			c0.019,0.218,0.055,0.452,0.146,0.544c0,0.018,0.017,0.018,0.071,0.018c0.072,0,0.218,0,0.325-0.253
			c0.091-0.199,0.108-0.416,0.108-0.416c0.019-0.272,0.272-0.488,0.543-0.47c0.271,0.018,0.487,0.271,0.471,0.541
			c-0.036,0.562-0.38,1.609-1.447,1.609c-0.326,0-0.614-0.125-0.83-0.361c-0.346-0.38-0.398-0.958-0.398-1.319v-0.29
			c0.019-0.487,0.019-1.953,0.019-1.953v-0.18c0-0.434-0.055-1.591-0.67-2.26c-0.308-0.326-0.705-0.471-1.212-0.471
			c-0.885,0-1.555,0.289-1.971,0.887c-0.271,0.378-0.361,0.794-0.38,0.902v4.54c0,0.288-0.216,0.505-0.507,0.505
			c-0.271,0-0.505-0.217-0.505-0.505V34.688C159.76,34.417,159.976,34.182,160.265,34.182z"/>
		<path fill="#FFFFFF" d="M171.657,41.034c1.41,0,2.241,0.633,2.693,1.175c0.453,0.543,0.597,1.086,0.633,1.194
			c0.019,0.09,0.234,0.868,0.234,1.754c0,0.469-0.071,0.976-0.252,1.428c-0.523,1.248-1.41,1.809-2.079,2.062
			c-0.668,0.253-1.229,0.253-1.32,0.234c-0.957,0-1.736-0.307-2.296-0.921c-0.886-0.941-0.977-2.334-0.977-2.839v-0.2
			c0-0.036,0.072-0.957,0.488-1.88C169.378,41.721,170.374,41.034,171.657,41.034z M169.307,44.994v0.127
			c0,0.36,0.055,1.464,0.705,2.15c0.38,0.416,0.887,0.598,1.573,0.598h0.019c0.072,0.019,1.718,0.055,2.423-1.682
			c0.344-0.796,0.089-2.08-0.019-2.513c0-0.019,0-0.019-0.018-0.019c0-0.072-0.417-1.609-2.333-1.609
			c-0.868,0-1.502,0.453-1.935,1.393C169.378,44.181,169.307,44.957,169.307,44.994z"/>
		<path fill="#FFFFFF" d="M179.269,41.034c1.412,0,2.243,0.633,2.695,1.175c0.451,0.543,0.596,1.086,0.632,1.194
			c0.02,0.09,0.235,0.868,0.235,1.754c0,0.469-0.071,0.976-0.253,1.428c-0.522,1.248-1.409,1.809-2.078,2.062
			c-0.67,0.253-1.231,0.253-1.32,0.234c-0.959,0-1.736-0.307-2.296-0.921c-0.886-0.941-0.977-2.334-0.977-2.839v-0.2
			c0-0.036,0.072-0.957,0.488-1.88C176.991,41.721,177.986,41.034,179.269,41.034z M176.92,44.994v0.127
			c0,0.36,0.055,1.464,0.705,2.15c0.38,0.416,0.885,0.598,1.572,0.598h0.019c0.071,0.019,1.717,0.055,2.424-1.682
			c0.343-0.796,0.089-2.08-0.021-2.513c0-0.019,0-0.019-0.017-0.019c0-0.072-0.416-1.609-2.334-1.609
			c-0.868,0-1.5,0.453-1.933,1.393C176.991,44.181,176.92,44.957,176.92,44.994z"/>
		<path fill="#FFFFFF" d="M184.389,34.164c0.288,0,0.506,0.234,0.506,0.505v12.693c0.035,0.199,0.071,0.38,0.145,0.471
			c0.018,0.019,0.018,0.019,0.072,0.019c0.072,0,0.218,0,0.325-0.253c0.09-0.2,0.108-0.416,0.126-0.416
			c0.02-0.272,0.254-0.488,0.525-0.471c0.289,0.019,0.487,0.271,0.471,0.543c-0.036,0.561-0.381,1.609-1.447,1.609
			c-0.326,0-0.614-0.129-0.832-0.361c-0.198-0.235-0.307-0.543-0.362-0.832c-0.018-0.055-0.036-0.109-0.036-0.164V34.669
			C183.881,34.398,184.117,34.164,184.389,34.164z"/>
	</g>
</g>
</svg>
