<?xml version="1.0" encoding="utf-8"?>
<!-- Generator: Adobe Illustrator 16.0.0, SVG Export Plug-In . SVG Version: 6.00 Build 0)  -->
<!DOCTYPE svg PUBLIC "-//W3C//DTD SVG 1.1//EN" "http://www.w3.org/Graphics/SVG/1.1/DTD/svg11.dtd">
<svg version="1.1" id="Layer_1" xmlns="http://www.w3.org/2000/svg" xmlns:xlink="http://www.w3.org/1999/xlink" x="0px" y="0px"
	 width="225.539px" height="40px" viewBox="0 0 225.539 40" enable-background="new 0 0 225.539 40" xml:space="preserve">
<g>
	<path fill="#F4823C" d="M215.083,6.369c0,0,8.178,3.419,7.594,12.028C222.677,18.397,225.012,8.121,215.083,6.369z"/>
	<path fill="#F4823C" d="M217.611,5.215c0,0,8.178,3.421,7.594,12.029C225.205,17.245,227.54,6.968,217.611,5.215z"/>
	<path fill="#F4823C" d="M10.358,6.369c0,0-8.178,3.419-7.593,12.028C2.766,18.397,0.429,8.121,10.358,6.369z"/>
	<path fill="#F4823C" d="M7.831,5.215c0,0-8.176,3.421-7.592,12.029C0.239,17.245-2.098,6.968,7.831,5.215z"/>
	<path fill="#F4823C" d="M94.939,4.545c0,0,5.316,1.803,5.587,6.848c0,0,0.451-5.947,5.946-6.848c0,0-4.595,0-5.766,2.435
		C100.706,6.979,98.003,4.636,94.939,4.545z"/>
	<path fill="#F4823C" d="M123.197,4.545c0,0,5.314,1.803,5.587,6.848c0,0,0.449-5.947,5.945-6.848c0,0-4.594,0-5.768,2.435
		C128.961,6.979,126.258,4.636,123.197,4.545z"/>
	<path fill="#F4823C" d="M7.081,26.118c-0.949-3.796-0.419-7.372,1.587-10.727c2.007-3.353,4.918-5.508,8.73-6.459
		c3.779-0.944,7.351-0.41,10.716,1.604s5.522,4.918,6.47,8.714c0.238,0.95,0.102,1.843-0.41,2.681
		c-0.51,0.84-1.241,1.377-2.189,1.614L21.69,26.115c-0.966,0.241-1.863,0.109-2.691-0.395c-0.829-0.504-1.361-1.23-1.598-2.18
		c-0.237-0.948-0.108-1.84,0.385-2.676c0.493-0.834,1.224-1.372,2.189-1.613l5.949-1.486c-1.915-1.969-4.185-2.628-6.812-1.972
		c-1.898,0.475-3.353,1.558-4.361,3.25c-1.009,1.692-1.278,3.478-0.809,5.36c0.475,1.898,1.553,3.348,3.235,4.35
		c1.68,1.002,3.47,1.267,5.369,0.792l10.295-2.571c0.95-0.237,1.848-0.101,2.694,0.408s1.388,1.229,1.621,2.161
		c0.241,0.966,0.106,1.869-0.405,2.707c-0.511,0.84-1.241,1.377-2.188,1.614l-10.297,2.572c-3.812,0.951-7.392,0.419-10.741-1.598
		C10.177,32.821,8.028,29.914,7.081,26.118z"/>
	<path fill="#00A8A2" d="M49.148,36.55c-3.868-0.697-6.916-2.652-9.14-5.867c-2.225-3.214-2.991-6.746-2.298-10.597
		c0.695-3.852,2.645-6.894,5.852-9.129c3.206-2.236,6.744-3.005,10.612-2.309c0.945,0.17,1.7,0.662,2.264,1.474
		c0.563,0.811,0.761,1.689,0.591,2.633c-0.177,0.981-0.67,1.744-1.478,2.291c-0.809,0.547-1.686,0.734-2.631,0.564
		c-1.925-0.347-3.695,0.044-5.31,1.174c-1.615,1.129-2.594,2.648-2.937,4.556c-0.348,1.926,0.041,3.69,1.163,5.294
		c1.121,1.604,2.646,2.58,4.571,2.927c1.908,0.343,3.667-0.041,5.278-1.152c1.612-1.112,2.59-2.631,2.938-4.557l3.767-20.911
		c0.173-0.964,0.661-1.727,1.465-2.293c0.802-0.564,1.686-0.761,2.648-0.588c0.963,0.173,1.727,0.666,2.29,1.477
		c0.564,0.812,0.759,1.7,0.586,2.662l-3.767,20.913c-0.693,3.85-2.652,6.892-5.877,9.125C56.51,36.469,52.981,37.239,49.148,36.55z"
		/>
	<path fill="#00A8A2" d="M85.722,36.716c-3.913,0.374-7.375-0.687-10.385-3.181c-3.01-2.493-4.702-5.688-5.073-9.582l-1.011-10.59
		c-0.092-0.956,0.168-1.814,0.78-2.575s1.413-1.188,2.404-1.283c0.973-0.093,1.837,0.175,2.59,0.806
		c0.753,0.63,1.175,1.423,1.267,2.379l1.011,10.589c0.186,1.948,1.036,3.543,2.549,4.784c1.514,1.242,3.245,1.77,5.192,1.583
		c1.931-0.184,3.521-1.029,4.772-2.534c1.251-1.507,1.784-3.233,1.598-5.181l-1.011-10.589c-0.092-0.956,0.173-1.815,0.794-2.577
		c0.619-0.761,1.417-1.188,2.391-1.281c0.974-0.093,1.841,0.175,2.603,0.802c0.763,0.631,1.189,1.424,1.28,2.38l1.012,10.588
		c0.372,3.896-0.694,7.354-3.195,10.374C92.789,34.65,89.599,36.344,85.722,36.716z"/>
	<path fill="#F4823C" d="M107.998,10.896c3.342-1.99,6.905-2.519,10.685-1.582c3.778,0.936,6.688,3.063,8.72,6.38l0.039,0.063
		c0.491,0.844,0.619,1.744,0.379,2.701c-0.239,0.958-0.773,1.684-1.601,2.18c-0.843,0.491-1.736,0.618-2.687,0.381
		c-0.948-0.238-1.672-0.769-2.167-1.595c-1.02-1.678-2.479-2.754-4.378-3.228c-1.898-0.476-3.675-0.208-5.331,0.799
		c-1.691,1-2.773,2.449-3.248,4.347c-0.476,1.897-0.203,3.687,0.819,5.363c0.983,1.688,2.423,2.767,4.322,3.242
		c1.898,0.474,3.693,0.203,5.389-0.813c0.826-0.496,1.713-0.625,2.661-0.388c0.95,0.238,1.68,0.771,2.193,1.603
		c0.491,0.842,0.617,1.738,0.38,2.688c-0.236,0.949-0.768,1.67-1.595,2.166l-0.069,0.063c-3.355,1.971-6.923,2.484-10.702,1.537
		c-3.778-0.944-6.669-3.099-8.673-6.463c-2.009-3.347-2.538-6.918-1.588-10.714C102.497,15.83,104.646,12.919,107.998,10.896z"/>
	<path fill="#00A8A2" d="M146.379,8.851c3.791,0.881,6.729,2.985,8.808,6.311c2.079,3.326,2.675,6.894,1.79,10.705l-2.403,10.337
		c-0.226,0.969-0.757,1.712-1.593,2.225c-0.838,0.513-1.732,0.66-2.686,0.438c-0.952-0.222-1.687-0.747-2.2-1.574
		c-0.519-0.828-0.663-1.728-0.438-2.697l2.402-10.335c0.438-1.888,0.142-3.67-0.896-5.348c-1.036-1.675-2.498-2.732-4.386-3.17
		c-1.907-0.442-3.696-0.141-5.363,0.905c-1.669,1.046-2.722,2.514-3.162,4.403c-0.443,1.907-0.144,3.688,0.896,5.346
		c1.039,1.659,2.512,2.71,4.417,3.153c0.936,0.217,1.665,0.746,2.189,1.584c0.521,0.84,0.672,1.727,0.454,2.662
		c-0.225,0.971-0.756,1.712-1.592,2.225c-0.837,0.514-1.724,0.662-2.658,0.445c-3.828-0.89-6.774-2.995-8.833-6.318
		c-2.064-3.32-2.652-6.887-1.766-10.699c0.886-3.809,2.986-6.752,6.303-8.824C138.978,8.552,142.549,7.959,146.379,8.851z"/>
	<path fill="#00A8A2" d="M168.976,9.387c3.646-1.37,7.257-1.246,10.83,0.37c3.573,1.616,6.046,4.256,7.423,7.918
		c0.345,0.917,0.309,1.819-0.102,2.711c-0.412,0.892-1.078,1.51-1.992,1.854c-0.915,0.343-1.817,0.314-2.707-0.09
		c-0.887-0.402-1.504-1.063-1.847-1.979c-0.683-1.815-1.917-3.132-3.71-3.953c-1.789-0.82-3.594-0.89-5.409-0.208
		c-1.83,0.688-3.149,1.929-3.962,3.726c-0.807,1.796-0.872,3.602-0.189,5.417l3.729,9.935c0.35,0.934,0.324,1.842-0.081,2.731
		c-0.404,0.889-1.062,1.504-1.978,1.848c-0.932,0.351-1.838,0.322-2.719-0.085c-0.88-0.406-1.494-1.076-1.845-2.007l-3.73-9.935
		c-1.375-3.664-1.259-7.274,0.354-10.838C162.651,13.239,165.297,10.768,168.976,9.387z"/>
	<path fill="#F4823C" d="M190.802,19.939c0.758-3.839,2.756-6.848,6.001-9.031c3.243-2.181,6.793-2.892,10.65-2.132
		c3.82,0.754,6.825,2.758,9.016,6.012c2.187,3.255,2.903,6.8,2.146,10.639c-0.189,0.96-0.692,1.71-1.51,2.252
		c-0.821,0.542-1.71,0.718-2.67,0.529l-10.411-2.054c-0.977-0.192-1.731-0.693-2.267-1.502c-0.535-0.808-0.709-1.693-0.519-2.652
		c0.189-0.96,0.685-1.712,1.487-2.258c0.802-0.545,1.69-0.722,2.669-0.529l6.014,1.188c-0.893-2.598-2.668-4.159-5.326-4.683
		c-1.919-0.379-3.695-0.016-5.327,1.085c-1.635,1.103-2.637,2.604-3.013,4.507c-0.378,1.919-0.021,3.69,1.076,5.312
		c1.095,1.624,2.601,2.624,4.521,3.003l10.411,2.053c0.959,0.189,1.714,0.695,2.263,1.517c0.553,0.819,0.734,1.702,0.548,2.644
		c-0.192,0.976-0.698,1.736-1.517,2.277c-0.819,0.542-1.709,0.718-2.667,0.528l-10.413-2.054c-3.855-0.76-6.87-2.766-9.039-6.016
		C190.751,27.324,190.043,23.778,190.802,19.939z"/>
	<g>
		<path fill-rule="evenodd" clip-rule="evenodd" fill="#00A8A2" d="M20.841,34.639c-0.007-0.079-0.042-0.142-0.077-0.205
			c-0.065-0.12-0.156-0.224-0.256-0.318c-0.179-0.169-0.377-0.314-0.592-0.435c-0.236-0.13-0.492-0.198-0.764-0.205
			c-0.354-0.011-0.684,0.074-0.997,0.238c-0.326,0.17-0.618,0.393-0.886,0.645c-0.156,0.148-0.305,0.305-0.454,0.463
			c-0.162,0.17-0.332,0.331-0.529,0.459c-0.12,0.077-0.25,0.136-0.391,0.167c-0.271,0.058-0.489-0.027-0.659-0.241
			c-0.175-0.22-0.239-0.478-0.23-0.753c0.006-0.212,0.06-0.413,0.136-0.607c0.154-0.395,0.376-0.748,0.625-1.087
			c0.378-0.52,0.811-0.99,1.236-1.47c0.295-0.333,0.583-0.674,0.871-1.014c0.32-0.376,0.645-0.751,0.958-1.137
			c0.288-0.354,0.546-0.731,0.754-1.138c0.118-0.23,0.216-0.47,0.258-0.728c0.034-0.212,0.027-0.421-0.065-0.62
			c-0.038-0.086-0.09-0.161-0.158-0.227c-0.092-0.092-0.205-0.136-0.333-0.141c-0.124-0.004-0.241,0.025-0.355,0.071
			c-0.229,0.092-0.432,0.23-0.625,0.381c-0.321,0.251-0.615,0.53-0.893,0.828c-0.306,0.331-0.61,0.664-0.905,1.004
			c-0.345,0.398-0.716,0.773-1.1,1.135c-0.358,0.335-0.715,0.67-1.074,1.006c-0.015,0.013-0.03,0.025-0.063,0.05
			c0.005-0.045,0.006-0.076,0.01-0.105c0.081-0.585,0.182-1.167,0.329-1.739c0.129-0.512,0.269-1.02,0.4-1.53
			c0.164-0.636,0.329-1.271,0.486-1.909c0.112-0.45,0.193-0.907,0.225-1.372c0.017-0.229,0.019-0.458-0.013-0.686
			c-0.02-0.15-0.056-0.295-0.125-0.43c-0.12-0.236-0.313-0.358-0.576-0.367c-0.176-0.006-0.347,0.028-0.509,0.094
			c-0.174,0.07-0.3,0.203-0.406,0.353c-0.147,0.206-0.25,0.434-0.338,0.669c-0.169,0.459-0.271,0.936-0.377,1.413
			c-0.182,0.834-0.384,1.663-0.638,2.479c-0.142,0.451-0.295,0.896-0.498,1.324c-0.097,0.205-0.208,0.402-0.312,0.604
			c-0.006,0.013-0.018,0.025-0.034,0.047c-0.021-0.033-0.042-0.056-0.051-0.083c-0.029-0.088-0.061-0.174-0.079-0.265
			c-0.049-0.242-0.064-0.487-0.062-0.731c0.01-0.628,0.026-1.254,0.042-1.882c0.011-0.517,0.026-1.033,0.031-1.549
			c0.004-0.478-0.015-0.955-0.085-1.429c-0.037-0.247-0.087-0.492-0.183-0.725c-0.072-0.171-0.164-0.327-0.318-0.435
			c-0.094-0.066-0.196-0.115-0.308-0.142c-0.168-0.037-0.324-0.008-0.467,0.09c-0.118,0.079-0.207,0.187-0.28,0.306
			c-0.133,0.219-0.218,0.457-0.281,0.702c-0.097,0.375-0.142,0.756-0.174,1.14c-0.052,0.644-0.113,1.287-0.161,1.931
			c-0.035,0.435-0.058,0.868-0.077,1.302c-0.018,0.379-0.08,0.749-0.195,1.11c-0.02,0.062-0.037,0.126-0.059,0.208
			c-0.017-0.04-0.027-0.065-0.037-0.091c-0.13-0.363-0.229-0.735-0.304-1.113c-0.106-0.536-0.201-1.073-0.301-1.609
			c-0.085-0.454-0.172-0.908-0.308-1.349c-0.072-0.238-0.159-0.47-0.282-0.687c-0.104-0.188-0.233-0.358-0.412-0.482
			c-0.093-0.064-0.192-0.111-0.302-0.136c-0.157-0.034-0.297,0.001-0.42,0.104c-0.109,0.094-0.183,0.211-0.24,0.34
			C6.455,24.428,6.4,24.738,6.38,25.056c-0.011,0.186,0.001,0.368,0.037,0.55c0.157,0.801,0.283,1.605,0.336,2.42
			c0.023,0.333,0.029,0.668,0.004,1.002c-0.026,0.328-0.094,0.648-0.161,0.968c-0.11,0.528-0.247,1.051-0.397,1.57
			c-0.191,0.674-0.377,1.351-0.5,2.043c-0.123,0.691-0.184,1.388-0.161,2.092c0.011,0.352,0.056,0.699,0.16,1.038
			c0.135,0.442,0.36,0.828,0.721,1.129c0.187,0.156,0.396,0.27,0.62,0.359c0.323,0.13,0.663,0.207,0.996,0.306
			c0.178,0.053,0.351,0.117,0.522,0.184c0.14,0.055,0.25,0.153,0.343,0.272c0.038,0.047,0.075,0.095,0.112,0.142
			c0.33,0.432,0.765,0.691,1.296,0.801c0.304,0.061,0.612,0.08,0.92,0.058c0.746-0.057,1.477-0.177,2.19-0.399
			c0.247-0.075,0.483-0.183,0.721-0.283c0.333-0.142,0.665-0.283,0.993-0.434c0.265-0.12,0.507-0.282,0.726-0.474
			c0.112-0.097,0.22-0.198,0.326-0.299c0.322-0.309,0.645-0.615,0.962-0.929c0.187-0.185,0.364-0.381,0.547-0.572
			c0.392-0.406,0.845-0.736,1.332-1.023c0.396-0.236,0.811-0.438,1.225-0.641c0.163-0.081,0.326-0.163,0.488-0.243
			C20.771,34.678,20.803,34.659,20.841,34.639z"/>
	</g>
	<g>
		<path fill-rule="evenodd" clip-rule="evenodd" fill="#00A8A2" d="M210.232,34.639c0.008-0.079,0.041-0.142,0.075-0.205
			c0.068-0.12,0.157-0.224,0.256-0.318c0.182-0.169,0.378-0.314,0.595-0.435c0.235-0.13,0.49-0.198,0.763-0.205
			c0.354-0.011,0.684,0.074,0.995,0.238c0.328,0.17,0.621,0.393,0.887,0.645c0.157,0.148,0.306,0.305,0.456,0.463
			c0.161,0.17,0.331,0.331,0.528,0.459c0.121,0.077,0.248,0.136,0.392,0.167c0.27,0.058,0.489-0.027,0.657-0.241
			c0.173-0.22,0.239-0.478,0.23-0.753c-0.006-0.212-0.06-0.413-0.136-0.607c-0.154-0.395-0.377-0.748-0.625-1.087
			c-0.377-0.52-0.812-0.99-1.234-1.47c-0.297-0.333-0.584-0.674-0.872-1.014c-0.322-0.376-0.645-0.751-0.957-1.137
			c-0.289-0.354-0.546-0.731-0.755-1.138c-0.119-0.23-0.215-0.47-0.258-0.728c-0.034-0.212-0.028-0.421,0.064-0.62
			c0.037-0.086,0.089-0.161,0.155-0.227c0.095-0.092,0.206-0.136,0.335-0.141c0.123-0.004,0.239,0.025,0.354,0.071
			c0.229,0.092,0.433,0.23,0.628,0.381c0.318,0.251,0.613,0.53,0.889,0.828c0.308,0.331,0.613,0.664,0.907,1.004
			c0.346,0.398,0.716,0.773,1.099,1.135c0.358,0.335,0.716,0.67,1.075,1.006c0.014,0.013,0.03,0.025,0.063,0.05
			c-0.004-0.045-0.005-0.076-0.011-0.105c-0.08-0.585-0.182-1.167-0.328-1.739c-0.13-0.512-0.267-1.02-0.4-1.53
			c-0.164-0.636-0.329-1.271-0.486-1.909c-0.11-0.45-0.193-0.907-0.225-1.372c-0.018-0.229-0.021-0.458,0.013-0.686
			c0.02-0.15,0.056-0.295,0.125-0.43c0.121-0.236,0.314-0.358,0.574-0.367c0.177-0.006,0.349,0.028,0.511,0.094
			c0.176,0.07,0.3,0.203,0.407,0.353c0.146,0.206,0.249,0.434,0.336,0.669c0.171,0.459,0.271,0.936,0.378,1.413
			c0.181,0.834,0.382,1.663,0.64,2.479c0.14,0.451,0.294,0.896,0.496,1.324c0.097,0.205,0.208,0.402,0.312,0.604
			c0.007,0.013,0.02,0.025,0.034,0.047c0.021-0.033,0.043-0.056,0.052-0.083c0.029-0.088,0.062-0.174,0.08-0.265
			c0.047-0.242,0.063-0.487,0.06-0.731c-0.009-0.628-0.026-1.254-0.039-1.882c-0.011-0.517-0.029-1.033-0.032-1.549
			c-0.005-0.478,0.016-0.955,0.084-1.429c0.036-0.247,0.087-0.492,0.185-0.725c0.071-0.171,0.163-0.327,0.317-0.435
			c0.094-0.066,0.195-0.115,0.307-0.142c0.169-0.037,0.326-0.008,0.467,0.09c0.119,0.079,0.21,0.187,0.281,0.306
			c0.133,0.219,0.219,0.457,0.281,0.702c0.097,0.375,0.142,0.756,0.174,1.14c0.054,0.644,0.114,1.287,0.161,1.931
			c0.035,0.435,0.059,0.868,0.076,1.302c0.02,0.379,0.08,0.749,0.195,1.11c0.021,0.062,0.035,0.126,0.061,0.208
			c0.017-0.04,0.028-0.065,0.037-0.091c0.129-0.363,0.228-0.735,0.303-1.113c0.104-0.536,0.201-1.073,0.301-1.609
			c0.085-0.454,0.173-0.908,0.307-1.349c0.074-0.238,0.159-0.47,0.282-0.687c0.104-0.188,0.232-0.358,0.413-0.482
			c0.092-0.064,0.19-0.111,0.301-0.136c0.158-0.034,0.297,0.001,0.422,0.104c0.107,0.094,0.181,0.211,0.239,0.34
			c0.131,0.293,0.187,0.603,0.205,0.921c0.012,0.186-0.003,0.368-0.036,0.55c-0.157,0.801-0.284,1.605-0.338,2.42
			c-0.022,0.333-0.029,0.668-0.003,1.002c0.024,0.328,0.095,0.648,0.158,0.968c0.111,0.528,0.249,1.051,0.398,1.57
			c0.194,0.674,0.378,1.351,0.501,2.043c0.122,0.691,0.183,1.388,0.16,2.092c-0.011,0.352-0.056,0.699-0.158,1.038
			c-0.135,0.442-0.361,0.828-0.722,1.129c-0.187,0.156-0.396,0.27-0.62,0.359c-0.323,0.13-0.663,0.207-0.994,0.306
			c-0.181,0.053-0.354,0.117-0.522,0.184c-0.14,0.055-0.252,0.153-0.345,0.272c-0.037,0.047-0.075,0.095-0.113,0.142
			c-0.33,0.432-0.766,0.691-1.296,0.801c-0.304,0.061-0.612,0.08-0.921,0.058c-0.743-0.057-1.477-0.177-2.188-0.399
			c-0.247-0.075-0.483-0.183-0.721-0.283c-0.332-0.142-0.665-0.283-0.993-0.434c-0.267-0.12-0.506-0.282-0.727-0.474
			c-0.11-0.097-0.219-0.198-0.324-0.299c-0.322-0.309-0.646-0.615-0.962-0.929c-0.187-0.185-0.362-0.381-0.547-0.572
			c-0.394-0.406-0.845-0.736-1.33-1.023c-0.399-0.236-0.813-0.438-1.226-0.641c-0.165-0.081-0.328-0.163-0.489-0.243
			C210.301,34.678,210.268,34.659,210.232,34.639z"/>
	</g>
</g>
</svg>
